<mxfile host="app.diagrams.net" modified="2022-12-29T20:48:11.291Z" agent="5.0 (X11)" etag="03083QUhY4Kv33_7szNU" version="20.7.4" type="github">
  <diagram id="8CkemjqQsDMu4BfAAnbw" name="Page-1">
    <mxGraphModel dx="1434" dy="757" grid="1" gridSize="10" guides="1" tooltips="1" connect="1" arrows="1" fold="1" page="1" pageScale="1" pageWidth="850" pageHeight="1100" math="0" shadow="0">
      <root>
        <mxCell id="0" />
        <mxCell id="1" parent="0" />
        <mxCell id="R_2EPrgF2rquo5TYR_g4-13" style="edgeStyle=orthogonalEdgeStyle;rounded=0;orthogonalLoop=1;jettySize=auto;html=1;exitX=0.5;exitY=1;exitDx=0;exitDy=0;entryX=0.5;entryY=0;entryDx=0;entryDy=0;" edge="1" parent="1" source="R_2EPrgF2rquo5TYR_g4-1" target="R_2EPrgF2rquo5TYR_g4-3">
          <mxGeometry relative="1" as="geometry" />
        </mxCell>
        <mxCell id="R_2EPrgF2rquo5TYR_g4-1" value="&lt;div&gt;Start&lt;/div&gt;" style="ellipse;whiteSpace=wrap;html=1;aspect=fixed;strokeWidth=2;" vertex="1" parent="1">
          <mxGeometry x="380" y="40" width="80" height="80" as="geometry" />
        </mxCell>
        <mxCell id="R_2EPrgF2rquo5TYR_g4-14" style="edgeStyle=orthogonalEdgeStyle;rounded=0;orthogonalLoop=1;jettySize=auto;html=1;exitX=0.5;exitY=1;exitDx=0;exitDy=0;entryX=0.5;entryY=0;entryDx=0;entryDy=0;" edge="1" parent="1" source="R_2EPrgF2rquo5TYR_g4-3" target="R_2EPrgF2rquo5TYR_g4-4">
          <mxGeometry relative="1" as="geometry" />
        </mxCell>
        <mxCell id="R_2EPrgF2rquo5TYR_g4-3" value="The login page is shown to the user" style="rounded=1;whiteSpace=wrap;html=1;" vertex="1" parent="1">
          <mxGeometry x="360" y="180" width="120" height="60" as="geometry" />
        </mxCell>
        <mxCell id="R_2EPrgF2rquo5TYR_g4-15" style="edgeStyle=orthogonalEdgeStyle;rounded=0;orthogonalLoop=1;jettySize=auto;html=1;exitX=0.5;exitY=1;exitDx=0;exitDy=0;entryX=0.5;entryY=0;entryDx=0;entryDy=0;" edge="1" parent="1" source="R_2EPrgF2rquo5TYR_g4-4" target="R_2EPrgF2rquo5TYR_g4-5">
          <mxGeometry relative="1" as="geometry" />
        </mxCell>
        <mxCell id="R_2EPrgF2rquo5TYR_g4-4" value="User submits the username and password" style="rounded=1;whiteSpace=wrap;html=1;" vertex="1" parent="1">
          <mxGeometry x="360" y="280" width="120" height="60" as="geometry" />
        </mxCell>
        <mxCell id="R_2EPrgF2rquo5TYR_g4-16" value="Yes" style="edgeStyle=orthogonalEdgeStyle;rounded=0;orthogonalLoop=1;jettySize=auto;html=1;exitX=0.5;exitY=1;exitDx=0;exitDy=0;entryX=0.5;entryY=0;entryDx=0;entryDy=0;" edge="1" parent="1" source="R_2EPrgF2rquo5TYR_g4-5" target="R_2EPrgF2rquo5TYR_g4-6">
          <mxGeometry relative="1" as="geometry" />
        </mxCell>
        <mxCell id="R_2EPrgF2rquo5TYR_g4-18" style="edgeStyle=orthogonalEdgeStyle;rounded=0;orthogonalLoop=1;jettySize=auto;html=1;exitX=1;exitY=0.5;exitDx=0;exitDy=0;entryX=0.5;entryY=1;entryDx=0;entryDy=0;" edge="1" parent="1" source="R_2EPrgF2rquo5TYR_g4-5" target="R_2EPrgF2rquo5TYR_g4-17">
          <mxGeometry relative="1" as="geometry" />
        </mxCell>
        <mxCell id="R_2EPrgF2rquo5TYR_g4-20" value="&lt;div&gt;No&lt;/div&gt;" style="edgeLabel;html=1;align=center;verticalAlign=middle;resizable=0;points=[];" vertex="1" connectable="0" parent="R_2EPrgF2rquo5TYR_g4-18">
          <mxGeometry x="-0.7083" y="-1" relative="1" as="geometry">
            <mxPoint as="offset" />
          </mxGeometry>
        </mxCell>
        <mxCell id="R_2EPrgF2rquo5TYR_g4-5" value="&lt;div&gt;Is the login&lt;/div&gt;&lt;div&gt;info valid?&lt;/div&gt;" style="rhombus;whiteSpace=wrap;html=1;" vertex="1" parent="1">
          <mxGeometry x="360" y="400" width="120" height="80" as="geometry" />
        </mxCell>
        <mxCell id="R_2EPrgF2rquo5TYR_g4-21" value="&lt;div&gt;No&lt;/div&gt;" style="edgeStyle=orthogonalEdgeStyle;rounded=0;orthogonalLoop=1;jettySize=auto;html=1;exitX=1;exitY=0.5;exitDx=0;exitDy=0;entryX=0.5;entryY=0;entryDx=0;entryDy=0;" edge="1" parent="1" source="R_2EPrgF2rquo5TYR_g4-6" target="R_2EPrgF2rquo5TYR_g4-7">
          <mxGeometry relative="1" as="geometry" />
        </mxCell>
        <mxCell id="R_2EPrgF2rquo5TYR_g4-24" value="Yes" style="edgeStyle=orthogonalEdgeStyle;rounded=0;orthogonalLoop=1;jettySize=auto;html=1;exitX=0.5;exitY=1;exitDx=0;exitDy=0;entryX=0.5;entryY=0;entryDx=0;entryDy=0;" edge="1" parent="1" source="R_2EPrgF2rquo5TYR_g4-6" target="R_2EPrgF2rquo5TYR_g4-9">
          <mxGeometry relative="1" as="geometry" />
        </mxCell>
        <mxCell id="R_2EPrgF2rquo5TYR_g4-6" value="&lt;div&gt;Is the user an&lt;/div&gt;&lt;div&gt;administrator?&lt;br&gt;&lt;/div&gt;" style="rhombus;whiteSpace=wrap;html=1;" vertex="1" parent="1">
          <mxGeometry x="360" y="520" width="120" height="80" as="geometry" />
        </mxCell>
        <mxCell id="R_2EPrgF2rquo5TYR_g4-22" value="No" style="edgeStyle=orthogonalEdgeStyle;rounded=0;orthogonalLoop=1;jettySize=auto;html=1;exitX=1;exitY=0.5;exitDx=0;exitDy=0;entryX=0.5;entryY=0;entryDx=0;entryDy=0;" edge="1" parent="1" source="R_2EPrgF2rquo5TYR_g4-7" target="R_2EPrgF2rquo5TYR_g4-11">
          <mxGeometry relative="1" as="geometry" />
        </mxCell>
        <mxCell id="R_2EPrgF2rquo5TYR_g4-23" value="Yes" style="edgeStyle=orthogonalEdgeStyle;rounded=0;orthogonalLoop=1;jettySize=auto;html=1;exitX=0.5;exitY=1;exitDx=0;exitDy=0;entryX=0.5;entryY=0;entryDx=0;entryDy=0;" edge="1" parent="1" source="R_2EPrgF2rquo5TYR_g4-7" target="R_2EPrgF2rquo5TYR_g4-10">
          <mxGeometry relative="1" as="geometry" />
        </mxCell>
        <mxCell id="R_2EPrgF2rquo5TYR_g4-7" value="&lt;div&gt;Is the user a&lt;/div&gt;&lt;div&gt;support staff?&lt;br&gt;&lt;/div&gt;" style="rhombus;whiteSpace=wrap;html=1;" vertex="1" parent="1">
          <mxGeometry x="500" y="640" width="120" height="80" as="geometry" />
        </mxCell>
        <mxCell id="R_2EPrgF2rquo5TYR_g4-27" style="edgeStyle=orthogonalEdgeStyle;rounded=0;orthogonalLoop=1;jettySize=auto;html=1;exitX=0.5;exitY=1;exitDx=0;exitDy=0;entryX=0.5;entryY=0;entryDx=0;entryDy=0;" edge="1" parent="1" source="R_2EPrgF2rquo5TYR_g4-9" target="R_2EPrgF2rquo5TYR_g4-12">
          <mxGeometry relative="1" as="geometry" />
        </mxCell>
        <mxCell id="R_2EPrgF2rquo5TYR_g4-9" value="The user is directed to the admin panel" style="rounded=1;whiteSpace=wrap;html=1;strokeWidth=1;" vertex="1" parent="1">
          <mxGeometry x="360" y="780" width="120" height="60" as="geometry" />
        </mxCell>
        <mxCell id="R_2EPrgF2rquo5TYR_g4-26" style="edgeStyle=orthogonalEdgeStyle;rounded=0;orthogonalLoop=1;jettySize=auto;html=1;exitX=0.5;exitY=1;exitDx=0;exitDy=0;entryX=0.5;entryY=0;entryDx=0;entryDy=0;" edge="1" parent="1" source="R_2EPrgF2rquo5TYR_g4-10" target="R_2EPrgF2rquo5TYR_g4-12">
          <mxGeometry relative="1" as="geometry" />
        </mxCell>
        <mxCell id="R_2EPrgF2rquo5TYR_g4-10" value="The user is directed to the support panel" style="rounded=1;whiteSpace=wrap;html=1;strokeWidth=1;" vertex="1" parent="1">
          <mxGeometry x="500" y="780" width="120" height="60" as="geometry" />
        </mxCell>
        <mxCell id="R_2EPrgF2rquo5TYR_g4-25" style="edgeStyle=orthogonalEdgeStyle;rounded=0;orthogonalLoop=1;jettySize=auto;html=1;exitX=0.5;exitY=1;exitDx=0;exitDy=0;entryX=0.5;entryY=0;entryDx=0;entryDy=0;" edge="1" parent="1" source="R_2EPrgF2rquo5TYR_g4-11" target="R_2EPrgF2rquo5TYR_g4-12">
          <mxGeometry relative="1" as="geometry" />
        </mxCell>
        <mxCell id="R_2EPrgF2rquo5TYR_g4-11" value="The user is directed to the ordinary user panel" style="rounded=1;whiteSpace=wrap;html=1;strokeWidth=1;" vertex="1" parent="1">
          <mxGeometry x="640" y="780" width="120" height="60" as="geometry" />
        </mxCell>
        <mxCell id="R_2EPrgF2rquo5TYR_g4-12" value="End" style="ellipse;whiteSpace=wrap;html=1;aspect=fixed;strokeWidth=2;" vertex="1" parent="1">
          <mxGeometry x="520" y="910" width="80" height="80" as="geometry" />
        </mxCell>
        <mxCell id="R_2EPrgF2rquo5TYR_g4-19" style="edgeStyle=orthogonalEdgeStyle;rounded=0;orthogonalLoop=1;jettySize=auto;html=1;exitX=0.5;exitY=0;exitDx=0;exitDy=0;" edge="1" parent="1" source="R_2EPrgF2rquo5TYR_g4-17">
          <mxGeometry relative="1" as="geometry">
            <mxPoint x="420" y="140" as="targetPoint" />
            <Array as="points">
              <mxPoint x="580" y="140" />
            </Array>
          </mxGeometry>
        </mxCell>
        <mxCell id="R_2EPrgF2rquo5TYR_g4-17" value="An error message is shown to the user" style="rounded=1;whiteSpace=wrap;html=1;strokeWidth=1;" vertex="1" parent="1">
          <mxGeometry x="520" y="240" width="120" height="60" as="geometry" />
        </mxCell>
      </root>
    </mxGraphModel>
  </diagram>
</mxfile>
